Coordinates
version=1
nRows=11
nColumns=63
inDegrees=yes

Units are S.I. units (second, meters, Newtons, ...)
If the header above contains a line with 'inDegrees', this indicates whether rotational values are in degrees (yes) or radians (no).

endheader
time	pelvis_tilt	pelvis_list	pelvis_rotation	pelvis_tx	pelvis_ty	pelvis_tz	hip_flexion_r	hip_adduction_r	hip_rotation_r	knee_angle_r	knee_angle_r_beta	ankle_angle_r	subtalar_angle_r	mtp_angle_r	hip_flexion_l	hip_adduction_l	hip_rotation_l	knee_angle_l	knee_angle_l_beta	ankle_angle_l	subtalar_angle_l	mtp_angle_l	L5_S1_Flex_Ext	L5_S1_Lat_Bending	L5_S1_axial_rotation	L4_L5_Flex_Ext	L4_L5_Lat_Bending	L4_L5_axial_rotation	L3_L4_Flex_Ext	L3_L4_Lat_Bending	L3_L4_axial_rotation	L2_L3_Flex_Ext	L2_L3_Lat_Bending	L2_L3_axial_rotation	L1_L2_Flex_Ext	L1_L2_Lat_Bending	L1_L2_axial_rotation	L1_T12_Flex_Ext	L1_T12_Lat_Bending	L1_T12_axial_rotation	Abs_r3	Abs_r2	Abs_r1	Abs_t1	Abs_t2	neck_flexion	neck_bending	neck_rotation	arm_flex_r	arm_add_r	arm_rot_r	elbow_flex_r	pro_sup_r	wrist_flex_r	wrist_dev_r	arm_flex_l	arm_add_l	arm_rot_l	elbow_flex_l	pro_sup_l	wrist_flex_l	wrist_dev_l
      2.44680851	    -11.92194595	    -11.25341331	     81.84598750	      0.06009295	      0.43867832	      0.78741515	     34.05900705	     -7.22486738	      5.94318277	     50.58057095	      0.88279750	     56.01140745	      5.81530151	      0.00000000	     28.14971430	      5.89040812	    -14.10169893	     42.09297559	      0.73466102	     56.94776643	     -3.39029157	      0.00000000	     -0.20446265	      0.73202355	     -3.06595417	     -0.37970758	      0.97359132	     -3.25757631	     -0.33591168	      1.77984206	     -3.25757631	     -0.23368036	      1.77984206	     -2.68270990	     -0.18986401	      1.49274242	     -2.49108777	     -0.11682996	      1.13390448	     -2.29946563	     -1.46045623	      8.28079679	    -17.05191732	      0.00000000	      0.00000000	      2.15093808	     -9.73103141	    -19.79901928	     -4.87729584	    -38.48329408	    -18.93460631	     14.71013372	      7.39680201	      1.10555881	     30.63962655	      2.70135247	    -10.70601750	    139.21798204	      0.86763675	     58.24642746	    -21.01284877	    -22.56563623
      2.46808511	    -12.07163434	    -11.46674700	     81.35485673	      0.06166573	      0.44025059	      0.78745321	     34.13951455	     -7.03806370	      6.28894831	     50.12579080	      0.87486009	     55.58292744	      5.94501221	      0.00000000	     28.16186969	      5.66092663	    -14.80940482	     41.63737329	      0.72670926	     56.56012666	     -3.42825420	      0.00000000	     -0.17828675	      0.72258744	     -3.09354401	     -0.33109633	      0.96104130	     -3.28689051	     -0.29290731	      1.75689911	     -3.28689051	     -0.20376393	      1.75689911	     -2.70685101	     -0.16555708	      1.47350031	     -2.51350451	     -0.10187305	      1.11928795	     -2.32015801	     -1.27348445	      8.17405367	    -17.20536372	      0.00000000	      0.00000000	      2.31722533	    -10.22046541	    -20.66670005	     -5.84765444	    -43.29900796	      1.24585971	     15.22448799	      8.78968940	      8.91998569	     24.77370685	     -9.95862950	    -12.60845101	     -0.68039276	     23.95349596	     67.97946599	     19.48641727	     12.71954836
      2.48936170	    -11.10338333	    -12.05124785	     81.43031724	      0.06129084	      0.44384485	      0.78537987	     33.65843674	     -6.19832589	      5.56865286	     48.72944357	      0.85048923	     54.80840707	      6.18358320	      0.00000000	     28.15503035	      4.68892579	    -14.63869685	     40.99350790	      0.71547168	     56.04014273	     -3.51233791	      0.00000000	     -0.11572717	      0.91059047	     -3.13169232	     -0.21491693	      1.21108532	     -3.32742309	     -0.19012817	      2.21400967	     -3.32742309	     -0.13226458	      2.21400967	     -2.74023078	     -0.10746425	      1.85687609	     -2.54450001	     -0.06612651	      1.41050464	     -2.34876924	     -0.82662760	     10.30078151	    -17.41753316	      0.00000000	      0.00000000	      2.23084141	    -11.77087786	    -19.70789072	     -7.33621432	    -50.53991531	     19.23065287	     17.12147338	     13.74005715	     13.53734617	     15.26627672	    -11.76774587	    -12.67041128	    -16.29712006	     26.60292064	     67.52538016	     21.22366121	     17.18769329
      2.51063830	    -10.54079066	    -12.44564766	     81.62098654	      0.06148397	      0.44704087	      0.78397622	     33.27583730	     -5.76180678	      4.97523662	     47.64174640	      0.83150534	     54.26144613	      6.42440906	      0.00000000	     28.07713572	      4.15407908	    -14.48626882	     40.36903855	      0.70457264	     55.43435522	     -3.59725968	      0.00000000	     -0.08214959	      1.05728819	     -3.20862049	     -0.15256001	      1.40619330	     -3.40915927	     -0.13496356	      2.57069051	     -3.40915927	     -0.09388877	      2.57069051	     -2.80754293	     -0.07628411	      2.15602208	     -2.60700415	     -0.04694028	      1.63773941	     -2.40646537	     -0.58678632	     11.96025549	    -17.84538460	      0.00000000	      0.00000000	      2.67274715	    -13.22132864	    -17.24289205	    -11.64433074	    -56.58934936	     15.24078756	     21.07011103	     23.72286889	     13.77625439	     10.36526054	    -12.89420849	    -15.76981007	    -24.63194022	     27.52729987	     71.08487366	     23.40303047	     14.84892977
      2.53191489	    -10.51424572	    -12.52809483	     81.69154943	      0.06284463	      0.44925683	      0.78391682	     33.01508209	     -5.66337776	      4.87583216	     46.96689234	      0.81972691	     54.07921970	      6.49160151	      0.00000000	     27.91675275	      3.97161742	    -14.76130047	     39.94641103	      0.69719640	     54.97306569	     -3.31208406	      0.00000000	     -0.07717817	      1.14609497	     -3.10677890	     -0.14332759	      1.52430631	     -3.30095259	     -0.12679602	      2.78661531	     -3.30095259	     -0.08820694	      2.78661531	     -2.71843154	     -0.07166765	      2.33711686	     -2.52425786	     -0.04409961	      1.77530111	     -2.33008418	     -0.55127598	     12.96485551	    -17.27897223	      0.00000000	      0.00000000	      3.60799396	    -14.79557166	    -14.13180013	    -23.49980066	    -58.78034832	    -14.58609748	     28.09309803	     36.31400153	     11.28025029	     14.62327100	    -12.78051555	    -21.13191474	    -28.44226211	     26.03376708	     73.48373760	     22.99376327	     11.47043053
      2.55319149	    -10.95513490	    -12.13505624	     81.89640815	      0.06481003	      0.45077544	      0.78552534	     32.72127927	     -6.07189740	      4.92074769	     46.80794958	      0.81695284	     54.23601549	      6.60371215	      0.00000000	     27.55447048	      4.32243912	    -14.98524807	     39.72307712	      0.69329848	     54.61074033	     -3.00498082	      0.00000000	     -0.12777178	      1.15575070	     -3.11111237	     -0.23728497	      1.53714843	     -3.30555689	     -0.20991625	      2.81009225	     -3.30555689	     -0.14603037	      2.81009225	     -2.72222332	     -0.11864887	      2.35680683	     -2.52777880	     -0.07300879	      1.79025784	     -2.33333428	     -0.91266103	     13.07408308	    -17.30307367	      0.00000000	      0.00000000	      4.64958295	    -16.16577729	    -10.43336793	    -33.82685391	    -61.51303379	    -30.51497094	     31.46041268	     27.88099076	      9.51823316	     17.21187028	    -13.17521227	    -28.06532194	    -28.36745134	     23.56253778	     73.20356063	     18.76879386	      7.75577144
      2.57446809	    -12.05586462	    -11.23864692	     81.83697234	      0.06797280	      0.45123942	      0.78912062	     32.56614540	     -6.97266578	      5.51353152	     47.33003824	      0.82606500	     54.65428088	      6.80399937	      0.00000000	     27.01004739	      5.16411359	    -15.68559441	     39.72688887	      0.69336501	     54.42547254	     -2.56392851	      0.00000000	     -0.23559214	      1.06338330	     -3.21930409	     -0.43751817	      1.41429978	     -3.42051060	     -0.38705433	      2.58551014	     -3.42051060	     -0.26925826	      2.58551014	     -2.81689108	     -0.21877086	      2.16845122	     -2.61568457	     -0.13461735	      1.64718072	     -2.41447807	     -1.68281112	     12.02920452	    -17.90480357	      0.00000000	      0.00000000	      5.95867594	    -17.16396285	     -5.45197438	    -41.60061400	    -63.81426432	    -44.69137820	     31.44898917	     17.13230445	      7.38122678	     19.09931144	    -15.06512786	    -35.70835476	    -27.50541186	     21.55923783	     72.18244479	     11.79301693	      5.45445451
      2.59574468	    -13.71743758	     -9.59755567	     82.00002162	      0.07252084	      0.45153106	      0.79447499	     32.03649155	     -8.38401955	      6.46565742	     48.29957198	      0.84298656	     55.18142406	      6.57250249	      0.00000000	     25.92806952	      6.58189966	    -16.51710616	     39.82853346	      0.69513905	     54.25970171	     -1.91485732	      0.00000000	     -0.42244655	      0.86549474	     -3.49613571	     -0.78452548	      1.15110800	     -3.71464420	     -0.69403743	      2.10436391	     -3.71464420	     -0.48281416	      2.10436391	     -3.05911875	     -0.39228386	      1.76491687	     -2.84061027	     -0.24138596	      1.34065135	     -2.62210179	     -3.01749343	      9.79064960	    -19.44445800	      0.00000000	      0.00000000	      7.10717220	    -17.68579611	      0.25009057	    -47.47898824	    -66.38245800	    -56.33900317	     29.48847342	      3.19295020	      5.10565609	     19.43317422	    -17.86948606	    -47.71100575	      5.10960369	     16.30693640	     38.02570510	      5.54665340	     -1.67181137
      2.61702128	    -15.71980908	     -7.57831814	     82.01091056	      0.07806106	      0.45174372	      0.80062769	     31.36942916	     -9.97776443	      7.87932753	     49.49679677	      0.86388207	     55.65786137	      6.17211722	      0.00000000	     24.49429388	      8.25114347	    -17.73423050	     39.84215632	      0.69537681	     53.99303458	     -1.21395674	      0.00000000	     -0.63398040	      0.57358523	     -3.82365024	     -1.17736499	      0.76286836	     -4.06262838	     -1.04156639	      1.39461513	     -4.06262838	     -0.72457619	      1.39461513	     -3.34569396	     -0.58871420	      1.16965500	     -3.10671582	     -0.36225640	      0.88848352	     -2.86773768	     -4.52845857	      6.48851084	    -21.26599554	      0.00000000	      0.00000000	      7.69308804	    -17.33413881	      4.82004979	    -47.74763748	    -68.48228993	    -71.48390514	     27.01458858	      1.18338200	      3.00026871	     21.35502282	    -24.07737672	    -55.30792838	      5.79585126	     14.24878320	     34.42371854	     -0.68971744	     -0.76481412
      2.63829787	    -17.07609405	     -5.81221709	     82.36472448	      0.08285323	      0.45332470	      0.80488036	     30.25675677	    -11.14542215	      8.64551066	     50.05896964	      0.87369384	     55.79020315	      5.54592908	      0.00000000	     22.94698132	      9.48635758	    -18.40994303	     39.62535990	      0.69159300	     53.64798513	     -0.60114779	      0.00000000	     -0.79276654	      0.33652267	     -4.11468543	     -1.47224675	      0.44757515	     -4.37185327	     -1.30243616	      0.81822122	     -4.37185327	     -0.90605288	      0.81822122	     -3.60034975	     -0.73616301	      0.68623703	     -3.34318191	     -0.45298680	      0.52127362	     -3.08601407	     -5.66265215	      3.80681176	    -22.88464594	      0.00000000	      0.00000000	      7.10382079	    -16.64996566	      7.23086014	    -44.61482802	    -71.47171192	    -89.14375235	     24.62674157	      0.69844040	      0.46318905	     25.69921692	    -27.29931664	    -62.95045380	     47.30751383	      6.82257756	      5.34639491	     -2.58630270	     -0.14677923
      2.65957447	    -17.26056922	     -4.96777038	     83.01854377	      0.08522846	      0.45538529	      0.80608336	     29.16180533	    -11.39397994	      8.45903346	     49.87688745	      0.87051591	     55.64671658	      4.86775342	      0.00000000	     21.94079127	      9.75637545	    -18.25966179	     39.38980875	      0.68748185	     53.42623837	     -0.18914078	      0.00000000	     -0.85177266	      0.24021297	     -4.31849388	     -1.58182700	      0.31948325	     -4.58839975	     -1.39937730	      0.58405381	     -4.58839975	     -0.97349097	      0.58405381	     -3.77868215	     -0.79095609	      0.48984228	     -3.50877628	     -0.48670290	      0.37208989	     -3.23887041	     -6.08412692	      2.71733712	    -24.01816742	      0.00000000	      0.00000000	      5.53793205	    -15.86601793	      6.86266011	    -40.22764875	    -76.47908546	   -108.87805282	     21.90775298	      0.60331346	     -2.71891417	     31.00289691	    -37.22150971	    -67.37900254	     48.08025019	      4.16473038	      6.64953927	     -5.69698449	      4.69754436
